<?xml version="1.0" standalone="no"?>
<!DOCTYPE svg PUBLIC "-//W3C//DTD SVG 20010904//EN"
 "http://www.w3.org/TR/2001/REC-SVG-20010904/DTD/svg10.dtd">
<svg version="1.0" xmlns="http://www.w3.org/2000/svg"
 width="235.000000pt" height="181.000000pt" viewBox="0 0 235.000000 181.000000"
 preserveAspectRatio="xMidYMid meet">

<g transform="translate(0.000000,181.000000) scale(0.100000,-0.100000)"
fill="#000000" stroke="none">
<path d="M1120 1438 c-41 -19 -154 -75 -250 -125 -96 -50 -252 -129 -346 -177
-204 -102 -219 -113 -211 -148 5 -20 27 -37 99 -74 51 -26 231 -121 400 -210
169 -90 327 -170 353 -178 100 -34 160 -18 393 107 568 304 612 330 619 354 4
17 0 31 -13 43 -11 10 -203 112 -428 226 -390 197 -412 207 -475 211 -58 4
-75 0 -141 -29z m-74 -387 c55 -25 87 -71 91 -135 5 -62 -16 -107 -69 -149
-50 -40 -129 -42 -183 -6 -94 62 -100 201 -12 269 53 42 111 49 173 21z m573
-16 c66 -45 87 -130 53 -208 -38 -85 -135 -119 -219 -76 -60 31 -85 66 -91
127 -6 66 12 117 53 148 67 51 140 54 204 9z"/>
<path d="M509 684 c-21 -23 -24 -34 -23 -100 l1 -74 -51 0 c-63 0 -114 -26
-141 -71 -26 -45 -27 -186 0 -242 26 -56 76 -90 140 -95 74 -6 172 39 209 95
50 75 52 188 6 290 -12 27 -24 77 -27 113 -7 108 -8 110 -51 110 -28 0 -45 -7
-63 -26z"/>
<path d="M1575 571 c-307 -157 -329 -158 -617 -12 l-198 99 0 -145 c0 -165 9
-206 57 -263 80 -93 247 -136 498 -127 165 6 222 18 314 67 71 38 117 91 137
157 15 49 20 324 7 322 -5 -1 -93 -45 -198 -98z m-523 -201 c15 -21 48 -51 75
-67 41 -24 59 -28 123 -28 94 0 159 29 204 93 28 40 55 51 63 26 6 -19 -57
-94 -104 -124 -55 -35 -138 -54 -196 -45 -43 7 -130 44 -157 67 -28 23 -70 85
-70 101 0 30 34 17 62 -23z"/>
</g>
</svg>
